#!OML:ASF F:\VICON\USERDATA\INSTALL\rory3\rory3.ASF
:FULLY-SPECIFIED
:DEGREES
45
root -0.06674947197911052 18.09432976285755 6.481510348564956 -2.9349763972688176 -2.596449265020654 -6.2899220231526005
lfemur -24.924986374622158 2.4410594686686538 -13.199496544955661
ltibia 61.40327000413669
lfoot -2.608069384358707 -3.7686524408879967
ltoes -1.6828796329604332
rfemur -6.295639083570854 6.356862272542216 32.56277231895893
rtibia 28.57216070883924
rfoot -11.442817513921439 -5.707993136781924
rtoes 4.322892398548736
lowerback 9.515667479630146 1.3716955969448512 5.935091550915014
upperback 0.5391436239016993 1.7615466672406879 2.4061867963699637
thorax -5.057517008333983 0.659797366025984 -0.08959374621860716
lowerneck -16.725168123270244 -2.9116806805805266 -2.1393186538254234
upperneck 21.268574610878183 -3.791616838024098 0.848449465728966
head 9.501598585899268 -1.8952598017562732 0.09374486264873258
lclavicle -1.9576282954130102e-15 8.913940297559356e-16
lhumerus -32.137184072681464 2.0447817030533946 82.98975252478472
lradius 27.95777127294565
lwrist 4.846425700787948
lhand -26.957587425130164 24.47899805658515
lfingers 7.12502
lthumb -0.4086494817185732 54.70752229591378
rclavicle -1.9512271471789506e-15 9.086274318735908e-16
rhumerus -25.63097568301282 -10.86171802762966 -82.00710144302454
rradius 25.757158426598412
rwrist 2.126673082319998
rhand -17.65419067189398 22.804359448184744
rfingers 7.12502
rthumb 8.546022788337428 -6.961808396459704
46
root -0.0524174881242912 18.049405243534917 6.8188992699819195 -2.3874124702728303 -3.342041154837462 -6.956956445859996
lfemur -27.216917454390035 2.2993786968756935 -12.732486395438986
ltibia 54.34838426651025
lfoot -2.9233689446125375 -2.528996262878368
ltoes -1.5780222760333422
rfemur -4.235780762970419 6.564129216288257 33.21258805762773
rtibia 28.151792982813653
rfoot -11.195423980422657 -5.7051228549052135
rtoes 2.5467667795319517
lowerback 9.463252956687807 1.7468704123733452 6.672153803741916
upperback 0.4866822991865856 2.280745748840216 2.332558797285536
thorax -5.04854725228086 0.9504754279908649 -0.7659808067204487
lowerneck -16.715271984862365 -2.933403322025159 -2.1555972386668985
upperneck 21.19618363356553 -3.831710160190944 0.8955679834590671
head 9.508254104752877 -1.9023690937529278 0.09673822530429474
lclavicle -1.9576319081307186e-15 8.913920434045035e-16
lhumerus -32.695749567749395 2.9385013024376683 82.8293444623065
lradius 27.455743029991417
lwrist 4.933054816446423
lhand -26.941184001778684 24.220302642225946
lfingers 7.12502
lthumb -0.394220944391524 54.44915463063346
rclavicle -1.951227109480823e-15 9.086273788104721e-16
rhumerus -24.877529969229716 -9.732721945806432 -82.16490520288772
rradius 26.672890260149817
rwrist 1.3429246063669291
rhand -17.68482277601495 22.908654321563645
rfingers 7.12502
rthumb 8.54461844322173 -6.97241944781705
47
root -0.03563605138763226 18.006442131683034 6.904794843098002 -1.7182627348499968 -4.134240613507086 -7.513488339249763
lfemur -28.32750002232343 1.2959766245652093 -12.052528134797196
ltibia 44.11912256179546
lfoot -3.8413088436057254 -1.8525455657137293
ltoes -1.6891033816709158
rfemur -2.252795373152237 6.816326185012084 33.632284979566315
rtibia 27.139890860159262
rfoot -10.490436010528216 -6.02296089572999
rtoes 1.5834017919344399
lowerback 9.290355185187929 2.0522041762330168 7.2066764711850135
upperback 0.4212356266187095 2.775633706455338 2.301878122584431
thorax -5.008530607607672 1.222319872084539 -1.3673454694598033
lowerneck -16.747346465147725 -2.945324204219189 -2.1788419580152407
upperneck 21.195642689056832 -3.8525003319913127 0.920394841114479
head 9.502498778258442 -1.9003567140659696 0.09859553130217447
lclavicle -1.957634132559477e-15 8.913878658134677e-16
lhumerus -33.30363208098293 3.8938642486848662 82.60515966558401
lradius 27.039531575521117
lwrist 4.889842823698979
lhand -26.89452644430764 24.0787059627107
lfingers 7.12502
lthumb -0.34309506940409135 54.29900099538034
rclavicle -1.9512263839305975e-15 9.08628097150198e-16
rhumerus -24.242936993498468 -9.271520556579238 -82.10187602011497
rradius 27.313865030022352
rwrist 0.9875209231108171
rhand -17.717875109437873 22.971206693895542
rfingers 7.12502
rthumb 8.568699181065456 -6.961655081278301
48
root -0.009035561381004142 17.95455647416752 7.132676707787485 -1.028027757626924 -4.8965920241923655 -7.94546723481146
lfemur -28.228839422622954 -0.9593050223473882 -10.778898913689055
ltibia 31.282077443591625
lfoot -3.1858604895363687 -1.108108441342639
ltoes -2.0538246486098393
rfemur -0.0629041432329025 6.947211742358324 34.09751851750348
rtibia 25.52857864899738
rfoot -9.552760521172566 -6.58687539733601
rtoes -0.043044781751556904
lowerback 9.038896439713183 2.28760370593054 7.477081176276512
upperback 0.3425715461585141 3.2089768426616674 2.289759248001312
thorax -4.962726121859462 1.4353195705126671 -1.8766360414303715
lowerneck -16.789030815377103 -2.929273465449686 -2.179670671628574
upperneck 21.138142669141935 -3.8489892858743944 0.8893353176496547
head 9.481916847119342 -1.8881880610677406 0.10137255540269129
lclavicle -1.957634182888028e-15 8.913858625654102e-16
lhumerus -33.98633559208217 4.788086402960393 82.300188758901
lradius 26.670815998875224
lwrist 4.699022647616349
lhand -26.871812901131555 23.87735861208548
lfingers 7.12502
lthumb -0.31321600037329145 54.09341992002347
rclavicle -1.951227229269388e-15 9.086273072130105e-16
rhumerus -23.810664911056378 -9.431081246050683 -81.92689941135413
rradius 27.804263064341228
rwrist 0.8578833508431645
rhand -17.71875283737261 23.047143659308887
rfingers 7.12502
rthumb 8.624021744311257 -6.899316506568947
49
root 0.03363617616425335 17.882351200387607 7.690908921802288 -0.479029107120551 -5.670442241823231 -8.280581105461575
lfemur -27.243087758432118 -4.515227642341777 -8.884544903358192
ltibia 17.501595472585002
lfoot -3.2998463244261442 -0.685282698059659
ltoes -2.495341492970577
rfemur 2.387765675198235 6.942341918095877 34.34576720263888
rtibia 23.556251460025305
rfoot -8.64193353023486 -7.12464705659425
rtoes -1.8352354808854519
lowerback 8.822362180242243 2.4542996244501794 7.518784394426519
upperback 0.2781045709068093 3.574559397334389 2.2771113566742125
thorax -4.899020339513491 1.6104974270539403 -2.244371752335334
lowerneck -16.853753181787262 -2.8888035944581336 -2.1738262871252028
upperneck 21.141686576709276 -3.82017675871007 0.8777202687212414
head 9.479800786758844 -1.8637640422460728 0.10125309794029438
lclavicle -1.9576361083574696e-15 8.913861401915447e-16
lhumerus -34.634239080358796 5.631371018563493 81.95968362764783
lradius 26.296657374215958
lwrist 4.399766696074613
lhand -26.863412214495284 23.630480793260137
lfingers 7.12502
lthumb -0.28295376673888495 53.8699856422593
rclavicle -1.9512256281451063e-15 9.086287951934994e-16
rhumerus -23.651797447305555 -10.082531805313135 -81.74726199011891
rradius 28.289459400853207
rwrist 0.8764290298365296
rhand -17.696663639766207 23.08617295948568
rfingers 7.12502
rthumb 8.671675080905679 -6.85807008909079
